# xmcd
#
# Track frame offsets: 
#        150
#        25549
#        46965
#        64312
#        92425
#        109791
#        126390
#        149700
#        169481
#        188433
#
# Disc length: 2842 seconds
#
# Revision: 3
# Processed by: cddbd v1.5.2PL0 Copyright (c) Steve Scherf et al.
# Submitted via: ExactAudioCopy v1.0b3
#
DISCID=8a0b180a
DTITLE=La-33 - La-33
DYEAR=2004
DGENRE=Salsa
TTITLE0=La 33
TTITLE1=Soledad
TTITLE2=Anny's boogaloo
TTITLE3=La pantera mambo
TTITLE4=Que rico boogaloo
TTITLE5=Suelta el bongo
TTITLE6=La pelicula
TTITLE7=La vita se pasa a mil
TTITLE8=El tornillo de guillo
TTITLE9=Manuela
EXTD=YEAR: 2004
EXTT0=
EXTT1=
EXTT2=
EXTT3=
EXTT4=
EXTT5=
EXTT6=
EXTT7=
EXTT8=
EXTT9=
PLAYORDER=
